<svg width="1160" height="178" viewBox="0 0 1160 178" fill="none" xmlns="http://www.w3.org/2000/svg">
<path d="M0 92.8127C0 139.803 40.7879 177.244 84.3139 177.244C89.0347 177.244 95.9507 176.606 103.457 174.621C104.519 174.337 105.322 173.462 105.322 172.352V130.939C105.322 129.663 104.283 128.623 103.008 128.623H83.1573C62.7161 128.623 46.9486 112.03 46.9486 91.5836V10.8157C46.9486 9.53929 45.91 8.49926 44.6354 8.49926H2.3132C1.03858 8.49926 0 9.53929 0 10.8157V92.8127Z" fill="white"/>
<path d="M166.952 92.0327C166.952 45.0422 131.239 8.49926 84.3139 8.49926H65.6194C64.3448 8.49926 63.3062 9.51565 63.3062 10.7921C63.3062 18.4741 63.3062 43.8131 63.3062 51.5897C63.3062 52.8661 64.3448 53.8825 65.5958 53.8825H83.0156C104.802 53.8825 121.656 70.6884 121.656 92.5054V165.308C121.656 167.057 123.591 168.168 125.078 167.246C151.208 151.007 166.928 120.468 166.928 92.0091L166.952 92.0327Z" fill="white"/>
<path d="M642.15 0.722656H607.499V30.4817H642.15V0.722656Z" fill="white"/>
<path d="M641.654 49.9114H607.994V172.115H641.654V49.9114Z" fill="white"/>
<path d="M554.932 98.8402L529.18 93.38C520.518 91.3945 514.853 89.8581 514.853 82.4361C514.853 75.6286 522.359 71.563 533.358 71.563C546.364 71.563 555.57 76.2904 559.842 87.3998L590.787 80.2142C584.839 61.3754 567.277 46.0113 534.35 46.0113C504.632 46.0113 484.592 61.3754 484.592 83.9488C484.592 105.033 499.203 112.928 523.704 118.388L544.499 123.092C555.381 125.574 560.881 128.812 560.881 136.494C560.881 145.098 553.398 149.849 540.794 149.849C526.371 149.849 516.009 143.396 511.572 129.308L481.358 135.998C487.047 157.318 505.128 175.424 539.779 175.424C574.429 175.424 591.778 157.318 591.778 134.769C591.778 115.433 578.702 103.828 554.932 98.8638V98.8402Z" fill="white"/>
<path d="M1005.35 98.8402L979.594 93.38C970.931 91.3945 965.266 89.8581 965.266 82.4361C965.266 75.6286 972.772 71.563 983.772 71.563C996.778 71.563 1005.98 76.2904 1010.26 87.3998L1041.2 80.2142C1035.25 61.3754 1017.69 46.0113 984.763 46.0113C955.046 46.0113 935.006 61.3754 935.006 83.9488C935.006 105.033 949.617 112.928 974.118 118.388L994.913 123.092C1005.79 125.574 1011.29 128.812 1011.29 136.494C1011.29 145.098 1003.81 149.849 991.207 149.849C976.785 149.849 966.423 143.396 961.985 129.308L931.772 135.998C937.461 157.318 955.541 175.424 990.192 175.424C1024.84 175.424 1042.19 157.318 1042.19 134.769C1042.19 115.433 1029.12 103.828 1005.35 98.8638V98.8402Z" fill="white"/>
<path d="M1123.15 98.8402L1097.4 93.38C1088.74 91.3945 1083.07 89.8581 1083.07 82.4361C1083.07 75.6286 1090.58 71.563 1101.58 71.563C1114.59 71.563 1123.79 76.2904 1128.06 87.3998L1159.01 80.2142C1153.06 61.3754 1135.5 46.0113 1102.57 46.0113C1072.85 46.0113 1052.81 61.3754 1052.81 83.9488C1052.81 105.033 1067.42 112.928 1091.93 118.388L1112.72 123.092C1123.6 125.574 1129.1 128.812 1129.1 136.494C1129.1 145.098 1121.62 149.849 1109.02 149.849C1094.59 149.849 1084.23 143.396 1079.79 129.308L1049.58 135.998C1055.27 157.318 1073.35 175.424 1108 175.424C1142.65 175.424 1160 157.318 1160 134.769C1160 115.433 1146.92 103.828 1123.15 98.8638V98.8402Z" fill="white"/>
<path d="M280.865 45.9877C267.623 45.9877 252.186 50.2896 242.107 57.5935V10.3429H208.684V172.139H239.511V159.304H241.942L242.202 159.587C251.809 170.981 266.443 175.401 280.889 175.401C315.327 175.401 343.227 146.422 343.227 110.682C343.227 74.9431 315.327 45.964 280.889 45.964L280.865 45.9877ZM277.679 147.414C259.031 147.414 243.925 130.987 243.925 110.706C243.925 90.4254 259.031 73.9976 277.679 73.9976C296.326 73.9976 313.061 90.4254 313.061 110.706C313.061 130.987 296.326 147.414 277.679 147.414Z" fill="white"/>
<path d="M793.617 112.762C793.617 76.1722 817.481 45.7986 857.513 45.7986C893.557 45.7986 917.185 71.4448 917.185 105.813C917.185 109.548 916.925 114.346 916.429 117.324H827.914C829.661 139.472 842.336 150.393 859.237 150.393C875.146 150.393 882.109 139.449 886.098 129.237L917.185 136.21C910.221 157.862 890.583 175.543 857.773 175.543C818.732 175.543 793.617 149.66 793.617 112.81V112.762ZM882.888 94.7982C880.905 80.356 871.7 71.1612 856.782 71.1612C842.855 71.1612 833.154 79.3632 829.425 94.7982H882.888Z" fill="white"/>
<path d="M438.092 171.359V159.375C438.092 159.375 436.369 159.375 435.85 159.375C426.621 168.57 420.082 175.779 401.034 175.779C375.636 175.779 356.304 155.616 356.304 127.512V48.3277H389.208V113.992C389.208 143.467 399.688 147.414 412.269 147.414C422.23 147.414 435.425 138.172 435.425 113.921V48.3277H468.329V171.359H438.092Z" fill="white"/>
<path d="M665.47 49.0605H695.684V60.2408C704.913 51.046 712.065 47.3586 731.113 47.3586C756.511 47.3586 777.472 64.8028 777.472 92.8836V172.092H744.568V106.428C744.568 82.3179 736.118 74.5885 723.537 74.5885C713.576 74.5885 698.375 82.2706 698.375 106.499V172.092H665.47V49.0605Z" fill="white"/>
</svg>
